#!OML:ASF E:/inclinewalkrobotboard/Project1/Captureday1/Session1/subject1.ASF
:FULLY-SPECIFIED
:DEGREES
113
root 0 0 0 1.3106622631838207 -3.845399479299796 1.8307622169284135
lowerback 12.166058592771773 0.8575402351314674 -0.061044208411959344
upperback -4.383972327824816 1.0946485259513308 -0.5676987517534292
thorax -11.614718602273904 0.49744959068284333 -0.8189560871020154
lowerneck -6.015979947283187 1.5937796219225089 4.464883101168494
upperneck 18.390776100632245 3.0985872958713347 -8.197477262314774
head 6.7452678065299985 1.1339777002952927 -3.1436957219825405
rclavicle 1.9309191692722273E-15 -4.139744819376593E-16
rhumerus 21.207405703347888 15.730655625921601 -47.644520475012726
rradius 73.60734553592596
rwrist 26.819816124032492
rhand -34.65279568453437 -57.61647912108503
rfingers 7.125020000000014
rthumb -7.7936945083663485 -87.56225149325601
lclavicle -3.8752788120403933E-16 -9.986871484582303E-16
lhumerus 22.09213612937817 -12.513301864358011 43.88272451961261
lradius 71.08825406386424
lwrist -23.550270144096622
lhand -44.61858450556306 -71.10630787041288
lfingers 7.125020000000031
lthumb -17.397509788482733 -41.80587474197117
rfemur -25.20577835178701 -2.218588071149462 17.203736952582815
rtibia 54.2015543177039
rfoot -29.66595685733924 -16.75384577820055
rtoes -18.446602860961505
lfemur -26.483259456107078 2.288777496167932 -17.632277728231877
ltibia 53.33354768183698
lfoot -32.55646491304255 -2.642760782204755
ltoes -21.012880543669745
114
root 0 0 0 1.3126544721790054 -3.851469904539046 1.8321767944264784
lowerback 12.168712853428604 0.8575663144808684 -0.05996815221897911
upperback -4.386027784794989 1.094830440231219 -0.5682406002429997
thorax -11.618505788250332 0.49744466096792067 -0.8200792815417988
lowerneck -6.011268094389891 1.594474561001601 4.464432713467392
upperneck 18.389453343316912 3.099792021767608 -8.19794008673307
head 6.744069982431205 1.134581330010886 -3.143514729806184
rclavicle 1.9278225641523948E-15 -4.0701585549644724E-16
rhumerus 21.244988124451694 15.763541320028514 -47.63686733537471
rradius 73.64046176827557
rwrist 26.824343981738746
rhand -34.65951904758876 -57.6578040988825
rfingers 7.125020000000014
rthumb -7.8004500226983176 -87.60202779389067
lclavicle -4.3673735280242295E-16 -1.0175726306668371E-15
lhumerus 22.11958229082311 -12.525724246679392 43.8665394386571
lradius 71.11278554761167
lwrist -23.55982581493108
lhand -44.621581765259364 -71.13205677635607
lfingers 7.125020000000031
lthumb -17.40101334067469 -41.833792433305874
rfemur -25.224728737719975 -2.2200592413828293 17.202214875705995
rtibia 54.20099421958258
rfoot -29.6900619751139 -16.762258326946302
rtoes -18.436406405592443
lfemur -26.488537833556755 2.2919317978307863 -17.629631576690997
ltibia 53.33869023746609
lfoot -32.58301937777777 -2.6272781985934124
ltoes -21.015553300215988
115
root 0 0 0 1.3133676219735193 -3.8527645669452175 1.8324559461912133
lowerback 12.169115892150446 0.8576285751032955 -0.05983951950343014
upperback -4.386167187927241 1.0949363330386057 -0.5683502364316971
thorax -11.618875901670389 0.4974882192017565 -0.8202787164065231
lowerneck -6.010700395898697 1.5943730682793282 4.46413921222188
upperneck 18.38899801783441 3.0996784279429175 -8.197646042069035
head 6.7438460957336295 1.1345574430106553 -3.1433730310977586
rclavicle 1.9316055978447557E-15 -4.0388032805973257E-16
rhumerus 21.250996610298586 15.769401224874569 -47.63700172503549
rradius 73.64535615926566
rwrist 26.823607884665606
rhand -34.66038931823188 -57.66269285221846
rfingers 7.125020000000014
rthumb -7.801287320927351 -87.6068268013145
lclavicle -4.379194454979112E-16 -1.0195857793189433E-15
lhumerus 22.123387051233216 -12.52845348700307 43.86464669069528
lradius 71.11664560684963
lwrist -23.560575910032952
lhand -44.621602688337994 -71.1328412423203
lfingers 7.125020000000031
lthumb -17.401094806591676 -41.834840363460685
rfemur -25.22994811616845 -2.2190842652521487 17.20181123653188
rtibia 54.19823297154782
rfoot -29.696372293130214 -16.765875097913607
rtoes -18.432290381621545
lfemur -26.488757088572108 2.2917976272863387 -17.62841746378189
ltibia 53.33494116773445
lfoot -32.59293005426141 -2.6193815001159564
ltoes -21.01662921579517
116
root 0 0 0 1.3135783036943276 -3.8556776067311715 1.83291523941844
lowerback 12.16908810093557 0.857917318869303 -0.060193768827144334
upperback -4.3856288187321955 1.0952571995849179 -0.5682585350987482
thorax -11.618215551380676 0.4976817265063457 -0.8200292949631356
lowerneck -6.009093224115969 1.5936382805565639 4.463395847986924
upperneck 18.38729590914404 3.0988152100165376 -8.197066269248513
head 6.74309704495142 1.1341914677865437 -3.1431678719747635
rclavicle 1.919304451960657E-15 -3.9730370162754345E-16
rhumerus 21.252344690574034 15.77114388363392 -47.6385424849461
rradius 73.64578412899702
rwrist 26.822306611318925
rhand -34.65993990499736 -57.66215819344978
rfingers 7.125020000000014
rthumb -7.800574062035505 -87.6061382415368
lclavicle -4.432484393569751E-16 -1.018571641787368E-15
lhumerus 22.12622720107526 -12.52784428156272 43.86374169903224
lradius 71.11873547297272
lwrist -23.56088555180343
lhand -44.621828826253626 -71.13561760105871
lfingers 7.125020000000031
lthumb -17.40133063771601 -41.838606592666736
rfemur -25.232233432732137 -2.2173004350473677 17.201919475985033
rtibia 54.19410675949697
rfoot -29.696116294292278 -16.76854700290275
rtoes -18.429886846136235
lfemur -26.49514092977163 2.2920805187480564 -17.631559745729643
ltibia 53.33085723537443
lfoot -32.598956220910246 -2.613160043624039
ltoes -21.006048597063348
